<svg xmlns="http://www.w3.org/2000/svg" width="64" height="64" viewBox="0 0 64 64" fill="none"><rect x="16" y="29" width="32" height="24" rx="4" fill="none" stroke="#F3F5F7" stroke-width="3.8"/><polyline points="23.1823,26.9162 23.5873,25.2918 24.2145,23.7395 25.0515,22.2897 26.0823,20.9704 27.2865,19.8075 28.641,18.8234 30.1192,18.0375 31.6924,17.4649 33.3299,17.1168 35,17 36.6701,17.1168 38.3076,17.4649 39.8808,18.0375 41.359,18.8234 42.7135,19.8075 43.9177,20.9704 44.9485,22.2897 45.7855,23.7395 46.4127,25.2918 46.8177,26.9162" fill="none" stroke="#F3F5F7" stroke-width="3.8" stroke-linecap="round" stroke-linejoin="round"/><polyline points="23,29 23,22" fill="none" stroke="#F3F5F7" stroke-width="3.8" stroke-linecap="round" stroke-linejoin="round"/><polyline points="47,29 47,25" fill="none" stroke="#F3F5F7" stroke-width="3.8" stroke-linecap="round" stroke-linejoin="round"/><circle cx="32" cy="41" r="2.2" fill="none" stroke="#F3F5F7" stroke-width="2"/><polyline points="32,43 32,47" fill="none" stroke="#F3F5F7" stroke-width="2" stroke-linecap="round" stroke-linejoin="round"/></svg>
